<?xml version="1.0" encoding="utf-8"?>
<!-- Generator: Adobe Illustrator 22.1.0, SVG Export Plug-In . SVG Version: 6.00 Build 0)  -->
<svg version="1.1" id="Layer_1" xmlns="http://www.w3.org/2000/svg" xmlns:xlink="http://www.w3.org/1999/xlink" x="0px" y="0px"
	 viewBox="0 0 410 143.7" style="enable-background:new 0 0 410 143.7;" xml:space="preserve">
<style type="text/css">
	.st0{fill:#1A1243;}
	.st1{fill:#565656;}
	.st2{fill:#EA3E47;}
	.st3{fill:#166AB4;}
	.st4{fill:#0F69B4;}
	.st5{fill:#EB3C46;}
</style>
<path class="st0" d="M154.9,86.3c-9.8,0-16.8,7.5-16.8,16.3c0,8.9,6.7,16.2,16.8,16.2c10.1,0,16.8-7.4,16.8-16.2
	C171.7,93.8,164.7,86.3,154.9,86.3z M154.9,113.7c-6,0-11.1-5.2-11.1-11.2c0-6.5,5.2-11.3,11.1-11.3c6,0,11.1,4.8,11.1,11.3
	C166,108.5,160.9,113.7,154.9,113.7z"/>
<path class="st0" d="M194.9,86.3c-4.7,0-8.7,1.7-11.7,4.5V73V73v-0.1v-0.3l0,0c-0.1-1.3-1.3-2.4-2.7-2.4c-1.4,0-2.5,1-2.7,2.4l0,0
	v44l0,0c0.1,1.4,1.2,2.6,2.7,2.6c1.4,0,2.6-1.2,2.7-2.6l0,0l0,0v-0.1v-0.1v-2c2.9,2.6,6.9,4.3,11.7,4.3c10.1,0,16.8-7.4,16.8-16.2
	C211.7,93.8,204.7,86.3,194.9,86.3z M194.9,113.7c-6,0-11.1-5.2-11.1-11.2c0-6.5,5.2-11.3,11.1-11.3c6,0,11.1,4.8,11.1,11.3
	C206,108.5,200.9,113.7,194.9,113.7z"/>
<path class="st0" d="M133.2,126.6c0-0.1,0.1-0.2,0.1-0.3c0-1.6-1.3-2.9-2.9-2.9s-2.9,1.3-2.9,2.9c0,0.1,0,0.2,0.1,0.3h-0.1l0,0
	c0,6-5.2,11.2-11.1,11.2c-6,0-11.1-5.2-11.1-11.2l0,0h-0.1c0-0.1,0.1-0.2,0.1-0.3c0-1.6-1.3-2.9-2.9-2.9c-1.6,0-2.9,1.3-2.9,2.9
	c0,0.1,0,0.2,0.1,0.3h-0.1l0,0c0,8.9,6.7,16.2,16.8,16.2C126.6,142.9,133.2,135.6,133.2,126.6L133.2,126.6L133.2,126.6z"/>
<path class="st0" d="M391.6,102.8c0-8.7-7-16.3-16.8-16.3c-9.8,0-16.8,7.5-16.8,16.3c0,8.9,6.7,16.2,16.8,16.2
	c4.7,0,8.6-1.5,11.4-4.1v1.6c0,0,0,0,0,0.1c0,0,0,0,0,0.1l0,0l0,0c0.1,1.4,1.2,2.6,2.7,2.6c1.4,0,2.6-1.2,2.7-2.6l0,0l0,0
	c0,0,0,0,0-0.1c0,0,0,0,0-0.1V103C391.6,102.9,391.6,102.9,391.6,102.8z M374.9,114c-6,0-11.1-5.2-11.1-11.2
	c0-6.5,5.2-11.3,11.1-11.3c6,0,11.1,4.8,11.1,11.3C385.9,108.8,380.8,114,374.9,114z"/>
<path class="st0" d="M315.4,126.2L315.4,126.2c0,0,0-0.1,0-0.1c0-1.6-1.3-2.9-2.9-2.9c-1.6,0-2.9,1.3-2.9,2.9v0.6l0,0l0,0
	c0,6-5.2,11.2-11.1,11.2c-6,0-11.1-5.2-11.1-11.2l0,0h-0.1c0.1-0.2,0.1-0.4,0.1-0.6c0-1.6-1.3-2.9-2.9-2.9s-2.9,1.3-2.9,2.9
	c0,0.2,0,0.4,0.1,0.6h-0.1l0,0c0,8.9,6.7,16.2,16.8,16.2c10.1,0,16.8-7.4,16.8-16.2L315.4,126.2z"/>
<polygon class="st0" points="281.8,126.3 281.8,126.9 282,126.8 "/>
<polygon class="st0" points="287.5,126.3 287.5,126.9 287.3,127.2 "/>
<path class="st0" d="M130.8,91.2L130.8,91.2c1.3-0.1,2.3-1.2,2.3-2.5s-1-2.4-2.3-2.5l0,0L114,86.4l0,0c-8.5,1.1-14.4,8.1-14.4,16.1
	c0,8.9,6.7,16.2,16.8,16.2c10.1,0,16.8-7.4,16.8-16.2c0-4.3-1.7-8.3-4.6-11.3H130.8z M127.5,102.5c0,6-5.2,11.2-11.1,11.2
	c-6,0-11.1-5.2-11.1-11.2c0-6.5,5.2-11.3,11.1-11.3S127.5,96.1,127.5,102.5z"/>
<path class="st0" d="M316,89.1c0-1.4-1.1-2.5-2.5-2.5h-16.8l0,0c-8.8,0.9-14.9,8-14.9,16.1c0,8.9,6.7,16.2,16.8,16.2
	c10.1,0,16.8-7.4,16.8-16.2c0-4.3-1.7-8.2-4.6-11.2h2.7C314.9,91.7,316,90.5,316,89.1z M309.7,102.8c0,6-5.2,11.2-11.1,11.2
	c-6,0-11.1-5.2-11.1-11.2c0-6.5,5.2-11.3,11.1-11.3C304.6,91.5,309.7,96.4,309.7,102.8z"/>
<path class="st0" d="M275,89.1c0-1.5-1.2-2.7-2.7-2.7c-1.5,0-2.7,1.2-2.7,2.7c0,0,0,0,0,0.1v27.5c0,0,0,0,0,0.1c0,0,0,0,0,0.1l0,0
	l0,0c0.1,1.4,1.2,2.6,2.7,2.6s2.6-1.2,2.7-2.6l0,0l0,0c0,0,0,0,0-0.1c0,0,0,0,0-0.1V89.1C274.9,89.1,275,89.1,275,89.1z"/>
<path class="st0" d="M329.1,89.3c0-1.5-1.2-2.7-2.7-2.7c-1.5,0-2.7,1.2-2.7,2.7c0,0,0,0,0,0.1v27.3c0,0,0,0,0,0.1c0,0,0,0,0,0.1l0,0
	l0,0c0.1,1.4,1.2,2.6,2.7,2.6c1.4,0,2.6-1.2,2.7-2.6l0,0l0,0c0,0,0,0,0-0.1c0,0,0,0,0-0.1V89.3L329.1,89.3z"/>
<path class="st0" d="M261.1,73c0-1.5-1.2-2.7-2.7-2.7s-2.7,1.2-2.7,2.7c0,0,0,0,0,0.1v18c-3-2.7-7-4.5-11.7-4.5
	c-9.8,0-16.8,7.5-16.8,16.3c0,8.9,6.7,16.2,16.8,16.2c4.7,0,8.8-1.6,11.7-4.3v1.8c0,0,0,0,0,0.1s0,0,0,0.1v0.3l0,0
	c0.1,1.3,1.3,2.4,2.7,2.4c1.4,0,2.5-1,2.7-2.4l0,0v-0.3c0,0,0,0,0-0.1c0,0,0,0,0-0.1V73L261.1,73z M244,114c-6,0-11.1-5.2-11.1-11.2
	c0-6.5,5.2-11.3,11.1-11.3c6,0,11.1,4.8,11.1,11.3C255.1,108.8,250,114,244,114z"/>
<path class="st0" d="M353.6,114L353.6,114h-0.2l0,0l0,0h-2.3c-2.1,0-2.6-0.6-2.6-2.3V91.7h4.7h0.1h0.1h0.1l0,0
	c1.2-0.1,2.2-1.1,2.2-2.3c0-1.2-1-2.3-2.2-2.3h-0.1l0,0c-0.1,0-0.1,0-0.1,0s-0.1,0-0.1,0h-4.5V72.8V73c0-1.5-1.2-2.9-2.7-2.9
	c-1.4,0-2.7,1.4-2.7,2.9l0,0V73l0,0v-0.2v14.2h-4c-0.1,0-0.1,0-0.1,0s-0.1,0-0.1,0l0,0l0,0c-1.2,0.1-2.2,1.1-2.2,2.3
	c0,1.2,1,2.3,2.2,2.3l0,0h0.1h0.1h0.1h4v20.7c0,4.7,1.6,6.7,7.1,6.7c1.1,0,2.2,0,3-0.1c0.1,0,0.1,0,0.1,0c1.4,0,2.5-1.1,2.5-2.5
	C355.9,115.2,354.9,114.1,353.6,114z"/>
<path class="st0" d="M407.5,114L407.5,114h-1.6c-1.7,0-3.4-1.2-3.4-4.7V73v-0.1v-0.1v-0.1l0,0c-0.1-1.4-1.2-2.5-2.7-2.5
	c-1.4,0-2.6,1.1-2.7,2.5l0,0v37c0,6.5,3.3,9.3,8.2,9.3h2.2l0,0c1.4,0,2.5-1.1,2.5-2.5C410,115.1,408.9,114,407.5,114z"/>
<g>
	<path class="st1" d="M149.4,137L149.4,137c0-3.3,2.4-6,5.7-6c1.9,0,3.1,0.7,4.2,1.6c0.1,0.1,0.1,0.2,0.1,0.3c0,0.2-0.2,0.4-0.4,0.4
		c-0.1,0-0.2-0.1-0.3-0.1c-1-0.9-2.1-1.5-3.6-1.5c-2.7,0-4.8,2.3-4.8,5.2l0,0c0,2.9,2.1,5.2,4.9,5.2c1.6,0,2.7-0.5,3.7-1.6
		c0.1-0.1,0.1-0.1,0.3-0.1c0.2,0,0.4,0.2,0.4,0.4c0,0.1-0.1,0.2-0.1,0.3c-1.2,1.1-2.4,1.8-4.3,1.8
		C151.9,142.9,149.4,140.3,149.4,137z"/>
	<path class="st1" d="M176.3,131.6c0-0.2,0.2-0.4,0.4-0.4c0.2,0,0.4,0.2,0.4,0.4v4.9h7.4v-4.9c0-0.2,0.2-0.4,0.4-0.4
		c0.2,0,0.4,0.2,0.4,0.4v10.8c0,0.2-0.2,0.4-0.4,0.4c-0.2,0-0.4-0.2-0.4-0.4v-5h-7.4v5c0,0.2-0.2,0.4-0.4,0.4
		c-0.2,0-0.4-0.2-0.4-0.4V131.6z"/>
	<path class="st1" d="M204.6,131.6c0-0.2,0.2-0.4,0.4-0.4c0.2,0,0.4,0.2,0.4,0.4v10.8c0,0.2-0.2,0.4-0.4,0.4c-0.2,0-0.4-0.2-0.4-0.4
		V131.6z"/>
	<path class="st1" d="M226,131.6c0-0.2,0.2-0.4,0.4-0.4c0.2,0,0.4,0.2,0.4,0.4v10.3h6.4c0.2,0,0.4,0.2,0.4,0.4
		c0,0.2-0.2,0.4-0.4,0.4h-6.8c-0.2,0-0.4-0.2-0.4-0.4V131.6z"/>
	<path class="st1" d="M251.9,142.3v-10.7c0-0.2,0.2-0.4,0.4-0.4h7.4c0.2,0,0.4,0.2,0.4,0.4c0,0.2-0.2,0.4-0.4,0.4h-7v4.5h6.3
		c0.2,0,0.4,0.2,0.4,0.4s-0.2,0.4-0.4,0.4h-6.3v4.6h7.1c0.2,0,0.4,0.2,0.4,0.4c0,0.2-0.2,0.4-0.4,0.4h-7.5
		C252.1,142.7,251.9,142.5,251.9,142.3z"/>
</g>
<path class="st2" d="M71.9,123.8c1.6,0,2.9,1.2,2.9,2.7c0,1.5-1.3,2.8-2.9,2.8s-2.9-1.2-2.9-2.7C68.9,125.1,70.2,123.8,71.9,123.8z"
	/>
<path class="st3" d="M61.8,128.9H49.1c-1.3,0-2.3-1-2.3-2.3l0,0c0-1.3,1-2.3,2.3-2.3h12.7c1.3,0,2.3,1,2.3,2.3l0,0
	C64.2,127.9,63.1,128.9,61.8,128.9z"/>
<path class="st0" d="M39.8,128.9H2.4c-1.3,0-2.3-1-2.3-2.3l0,0c0-1.3,1-2.3,2.3-2.3h37.4c1.3,0,2.3,1,2.3,2.3l0,0
	C42.1,127.9,41.1,128.9,39.8,128.9z"/>
<path class="st2" d="M3.3,102.5c-1.6,0-3-1.2-3-2.7c0-1.5,1.4-2.8,3-2.8s3,1.2,3,2.7C6.2,101.2,4.9,102.5,3.3,102.5z"/>
<path class="st3" d="M24.3,102H13.6c-1.3,0-2.3-1-2.3-2.3l0,0c0-1.3,1-2.3,2.3-2.3h10.7c1.3,0,2.3,1,2.3,2.3l0,0
	C26.7,101,25.6,102,24.3,102z"/>
<path class="st2" d="M72.6,102H33.7c-1.3,0-2.3-1-2.3-2.3l0,0c0-1.3,1-2.3,2.3-2.3h38.8c1.3,0,2.3,1,2.3,2.3l0,0
	C74.9,101,73.9,102,72.6,102z"/>
<path class="st3" d="M3,75.9c-1.6,0-3-1.2-3-2.7s1.4-2.8,3-2.8s3,1.2,3,2.7C6,74.6,4.7,75.9,3,75.9z"/>
<path class="st2" d="M22.4,75.5h-9.3c-1.3,0-2.3-1-2.3-2.3l0,0c0-1.3,1-2.3,2.3-2.3h9.3c1.3,0,2.3,1,2.3,2.3l0,0
	C24.7,74.5,23.7,75.5,22.4,75.5z"/>
<path class="st0" d="M72.5,75.5H31.9c-1.3,0-2.3-1-2.3-2.3l0,0c0-1.3,1-2.3,2.3-2.3h40.5c1.3,0,2.3,1,2.3,2.3l0,0
	C74.8,74.5,73.8,75.5,72.5,75.5z"/>
<path class="st2" d="M71.8,83.5c1.6,0,2.9,1.2,2.9,2.7s-1.3,2.8-2.9,2.8c-1.6,0-2.9-1.2-2.9-2.7C68.9,84.8,70.2,83.5,71.8,83.5z"/>
<path class="st0" d="M39.9,88.6H2.5c-1.3,0-2.3-1-2.3-2.3l0,0c0-1.3,1-2.3,2.3-2.3h37.4c1.3,0,2.3,1,2.3,2.3l0,0
	C42.2,87.6,41.2,88.6,39.9,88.6z"/>
<path class="st3" d="M61.8,88.6H49.2c-1.3,0-2.3-1-2.3-2.3l0,0c0-1.3,1-2.3,2.3-2.3h12.6c1.3,0,2.3,1,2.3,2.3l0,0
	C64.1,87.6,63.1,88.6,61.8,88.6z"/>
<path class="st2" d="M50.5,110.4c1.5,0,2.7,1.2,2.7,2.7s-1.2,2.8-2.8,2.8c-1.5,0-2.7-1.2-2.7-2.7C47.8,111.6,49,110.4,50.5,110.4z"
	/>
<path class="st3" d="M40.5,115.5H2.4c-1.3,0-2.3-1-2.3-2.3l0,0c0-1.3,1-2.3,2.3-2.3h38.1c1.3,0,2.3,1,2.3,2.3l0,0
	C42.9,114.4,41.8,115.5,40.5,115.5z"/>
<path class="st0" d="M72.3,115.5H60.5c-1.3,0-2.3-1-2.3-2.3l0,0c0-1.3,1-2.3,2.3-2.3h11.8c1.3,0,2.3,1,2.3,2.3l0,0
	C74.7,114.4,73.6,115.5,72.3,115.5z"/>
<path class="st3" d="M3,142.8c-1.6,0-3-1.2-3-2.7s1.4-2.8,3-2.8s3,1.2,3,2.7S4.7,142.8,3,142.8z"/>
<path class="st2" d="M23.7,142.3H13.1c-1.3,0-2.3-1-2.3-2.3l0,0c0-1.3,1-2.3,2.3-2.3h10.6c1.3,0,2.3,1,2.3,2.3l0,0
	C26,141.3,25,142.3,23.7,142.3z"/>
<path class="st0" d="M72.4,142.3H33.3c-1.3,0-2.3-1-2.3-2.3l0,0c0-1.3,1-2.3,2.3-2.3h39c1.3,0,2.3,1,2.3,2.3l0,0
	C74.7,141.3,73.7,142.3,72.4,142.3z"/>
<polygon class="st0" points="99.6,126.3 99.6,127 99.9,126.8 "/>
<polygon class="st0" points="105.3,126.2 105.3,126.9 104.9,127 "/>
<polygon class="st0" points="127.5,126.3 127.5,127 127.8,126.8 "/>
<polygon class="st0" points="133.2,126.2 133.2,126.7 132.8,127 "/>
<g>
	<rect y="0.4" class="st4" width="187.5" height="15.5"/>
	<rect x="187.5" y="0.4" class="st5" width="222.4" height="15.5"/>
</g>
</svg>
